<svg width="32" height="32" viewBox="0 0 32 32" fill="none" xmlns="http://www.w3.org/2000/svg">
<rect width="32" height="32" rx="2" fill="black"/>
<path d="M4.51136 21.5V9.86364H9.10227C9.98485 9.86364 10.7367 10.0322 11.358 10.3693C11.9792 10.7027 12.4527 11.1667 12.7784 11.7614C13.108 12.3523 13.2727 13.0341 13.2727 13.8068C13.2727 14.5795 13.1061 15.2614 12.7727 15.8523C12.4394 16.4432 11.9564 16.9034 11.3239 17.233C10.6951 17.5625 9.93371 17.7273 9.03977 17.7273H6.11364V15.7557H8.64205C9.11553 15.7557 9.50568 15.6742 9.8125 15.5114C10.1231 15.3447 10.3542 15.1155 10.5057 14.8239C10.661 14.5284 10.7386 14.1894 10.7386 13.8068C10.7386 13.4205 10.661 13.0833 10.5057 12.7955C10.3542 12.5038 10.1231 12.2784 9.8125 12.1193C9.50189 11.9564 9.10795 11.875 8.63068 11.875H6.97159V21.5H4.51136ZM14.8707 9.86364H17.9048L21.1094 17.6818H21.2457L24.4503 9.86364H27.4844V21.5H25.098V13.9261H25.0014L21.9901 21.4432H20.3651L17.3537 13.8977H17.2571V21.5H14.8707V9.86364Z" fill="white"/>
</svg>
